<svg xmlns="http://www.w3.org/2000/svg" width="1296" height="296" viewBox="0 0 1296 296" version="1.1"><path d="M 0 148.001 L 0 296.002 648.250 295.751 L 1296.500 295.500 1296.753 147.750 L 1297.007 0 648.503 0 L 0 0 0 148.001 M 0.487 148.500 C 0.487 229.900, 0.605 263.052, 0.750 222.172 C 0.895 181.291, 0.895 114.691, 0.750 74.172 C 0.605 33.652, 0.487 67.100, 0.487 148.500 M 16 148 L 16 280 648 280 L 1280 280 1280 148 L 1280 16 648 16 L 16 16 16 148 M 1127.201 20.258 C 1126.627 20.950, 1125.512 23.387, 1124.725 25.673 C 1123.307 29.787, 1119.199 35.838, 1117.750 35.945 C 1117.338 35.975, 1116.912 34.087, 1116.805 31.750 C 1116.698 29.413, 1116.556 26.375, 1116.489 25 C 1116.422 23.625, 1115.947 22.387, 1115.434 22.250 C 1114.423 21.979, 1113.501 24.484, 1112.579 30 C 1112.257 31.925, 1111.102 34.962, 1110.012 36.750 C 1108.189 39.739, 1107.606 40.004, 1102.765 40.054 C 1095.065 40.134, 1088.899 42.773, 1087.702 46.500 C 1085.725 52.660, 1083.003 54.482, 1073.519 55.997 C 1069.796 56.592, 1065.436 57.758, 1063.830 58.588 C 1060.954 60.075, 1060.921 60.187, 1061.574 66.299 C 1062.806 77.820, 1068.059 84.976, 1075.327 85.032 C 1077.622 85.049, 1080.374 85.724, 1081.441 86.532 C 1084.061 88.514, 1086.876 88.373, 1090.648 86.073 C 1093.783 84.161, 1093.804 84.162, 1095.837 86.327 C 1098.508 89.170, 1099.951 95.714, 1099.954 105 C 1099.956 113.233, 1098.170 118.443, 1093.148 124.852 C 1088.091 131.306, 1087.943 131.961, 1088.917 143.669 C 1089.606 151.952, 1090.456 155.912, 1092.530 160.500 C 1094.021 163.800, 1096.589 170.325, 1098.235 175 C 1101.215 183.461, 1101.226 183.575, 1100.671 200 C 1099.993 220.078, 1096.834 237.468, 1092.224 246.500 C 1087.963 254.848, 1086.733 256.250, 1083.669 256.250 C 1080.249 256.250, 1070.632 261.958, 1070.190 264.249 C 1069.717 266.709, 1073.762 268, 1081.940 268 C 1094.261 268, 1094.478 267.876, 1099.232 258.122 C 1101.544 253.380, 1104.171 248.825, 1105.071 248 C 1106.845 246.373, 1110 237.132, 1110 233.561 C 1110 232.346, 1111.103 227.666, 1112.452 223.161 C 1113.800 218.656, 1115.665 211.039, 1116.596 206.235 C 1117.526 201.431, 1118.575 196.944, 1118.925 196.265 C 1119.334 195.473, 1123.026 198.557, 1129.215 204.861 L 1138.868 214.693 1138.547 231.597 C 1138.108 254.755, 1137.257 256.823, 1125.789 262.603 C 1118.415 266.320, 1115.888 269.317, 1118.189 271.618 C 1119.893 273.322, 1135.214 275.354, 1140 274.510 C 1146.423 273.378, 1146.759 273.083, 1148.592 266.963 L 1150.379 261 1164.489 261 C 1174.447 261, 1178.967 261.368, 1179.845 262.250 C 1180.590 262.997, 1184.996 263.701, 1190.795 264 L 1200.500 264.500 1200.231 267.128 C 1199.927 270.100, 1201.759 270.963, 1208.422 270.986 C 1213.536 271.004, 1224.950 266.452, 1227.500 263.377 C 1229.349 261.148, 1230.558 260.888, 1243.500 259.935 C 1264.304 258.403, 1268 257.950, 1268 256.928 C 1268 255.878, 1268.999 255.951, 1243.522 255.120 L 1224.543 254.500 1223.574 251.737 C 1222.921 249.874, 1222.988 247.107, 1223.782 243.237 C 1224.740 238.563, 1224.689 236.481, 1223.507 232 C 1221.625 224.869, 1216.610 215.412, 1211.189 208.777 C 1207.115 203.790, 1197.079 187.283, 1187.309 169.500 C 1184.892 165.100, 1179.518 157.450, 1175.367 152.500 C 1171.215 147.550, 1166.448 140.800, 1164.773 137.500 C 1160.649 129.378, 1155.301 121.698, 1148.755 114.500 C 1145.755 111.200, 1142.517 106.982, 1141.560 105.126 C 1137.936 98.097, 1134.888 85.449, 1133.958 73.577 C 1133.444 67.020, 1132.744 59.554, 1132.404 56.986 C 1131.950 53.567, 1132.245 51.427, 1133.505 48.990 C 1135.465 45.200, 1135.221 41.949, 1131.921 27.893 C 1129.833 18.997, 1129.156 17.902, 1127.201 20.258 M 350.558 105.248 C 341.519 107.636, 333.905 119.562, 335.478 128.869 C 336.819 136.808, 341.462 141.328, 358.740 151.512 C 370.031 158.168, 372.235 160.645, 372.722 167.228 C 373.751 181.152, 359.372 186.176, 341.582 178.110 L 334.903 175.081 335.201 180.770 L 335.500 186.460 343 188.279 C 351.689 190.386, 364.370 190.138, 370.073 187.747 C 386.572 180.833, 390.096 160.437, 376.656 149.641 C 374.370 147.805, 368 143.682, 362.500 140.479 C 357 137.275, 351.277 133.350, 349.782 131.755 C 344.397 126.012, 345.500 118.180, 352.299 113.892 C 356.975 110.943, 365.577 111.748, 373.814 115.906 L 380.102 119.080 379.801 113.324 L 379.500 107.567 373 105.851 C 365.722 103.929, 356.489 103.681, 350.558 105.248 M 426.270 105.054 C 408.170 108.626, 397 124.634, 397 147 C 397 164.810, 404.274 179.580, 415.937 185.453 C 426.836 190.942, 442.356 191.482, 459.159 186.957 L 463 185.923 463 169.461 L 463 153 457.500 153 L 452 153 452 166.461 L 452 179.923 447.750 181.072 C 441.683 182.713, 430.380 181.767, 425.372 179.200 C 419.777 176.332, 413.492 168.945, 411.309 162.671 C 408.557 154.762, 408.895 137.469, 411.957 129.500 C 415.141 121.214, 421.853 114.714, 428.998 113.001 C 436.438 111.216, 446.077 112.259, 455.028 115.817 L 462.500 118.787 462.808 113.738 C 463.007 110.467, 462.672 108.416, 461.857 107.912 C 461.165 107.484, 456.752 106.428, 452.049 105.565 C 442.921 103.890, 433.150 103.696, 426.270 105.054 M 1034.558 105.248 C 1025.519 107.636, 1017.905 119.562, 1019.478 128.869 C 1020.819 136.808, 1025.462 141.328, 1042.740 151.512 C 1054.031 158.168, 1056.235 160.645, 1056.722 167.228 C 1057.751 181.152, 1043.372 186.176, 1025.582 178.110 L 1018.903 175.081 1019.201 180.770 L 1019.500 186.460 1027 188.279 C 1035.689 190.386, 1048.370 190.138, 1054.073 187.747 C 1070.572 180.833, 1074.096 160.437, 1060.656 149.641 C 1058.370 147.805, 1052 143.682, 1046.500 140.479 C 1041 137.275, 1035.277 133.350, 1033.782 131.755 C 1028.397 126.012, 1029.500 118.180, 1036.299 113.892 C 1040.975 110.943, 1049.577 111.748, 1057.814 115.906 L 1064.102 119.080 1063.801 113.324 L 1063.500 107.567 1057 105.851 C 1049.722 103.929, 1040.489 103.681, 1034.558 105.248 M 29 110 L 29 114 43 114 L 57 114 57 151 L 57 188 62.500 188 L 68 188 68 151 L 68 114 82.500 114 L 97 114 97 110 L 97 106 63 106 L 29 106 29 110 M 108 147 L 108 188 113.500 188 L 119 188 119 170.500 L 119 153 124.389 153 L 129.779 153 141.139 170.448 L 152.500 187.897 159.250 187.948 C 162.963 187.977, 166 187.742, 166 187.427 C 166 187.111, 160.134 178.470, 152.965 168.223 L 139.931 149.592 142.715 148.177 C 149.935 144.509, 154.823 137.114, 155.710 128.516 C 156.369 122.131, 154.796 116.977, 150.800 112.425 C 146.328 107.331, 140.530 106, 122.818 106 L 108 106 108 147 M 200.707 107.250 C 200.342 108.153, 176.744 167.844, 169.280 186.750 C 168.922 187.656, 170.262 188, 174.149 188 L 179.512 188 184.030 176.250 L 188.547 164.500 205.524 164.500 L 222.500 164.500 226.924 176.250 L 231.348 188 237.534 188 L 243.720 188 228.110 147.010 L 212.500 106.020 206.857 106.010 C 203.271 106.004, 201.029 106.456, 200.707 107.250 M 256 146.950 L 256 188 260.986 188 L 265.972 188 266.236 156.970 L 266.500 125.941 286.588 156.720 L 306.676 187.500 312.338 187.800 L 318 188.100 318 147.050 L 318 106 313.014 106 L 308.028 106 307.764 137.090 L 307.500 168.181 287.419 137.340 L 267.338 106.500 261.669 106.200 L 256 105.900 256 146.950 M 484 147 L 484 188 489.500 188 L 495 188 495 170.500 L 495 153 500.389 153 L 505.779 153 517.139 170.448 L 528.500 187.897 535.250 187.948 C 538.962 187.977, 542 187.742, 542 187.427 C 542 187.111, 536.134 178.470, 528.965 168.223 L 515.931 149.592 518.715 148.177 C 525.935 144.509, 530.823 137.114, 531.710 128.516 C 532.369 122.131, 530.796 116.977, 526.800 112.425 C 522.328 107.331, 516.530 106, 498.818 106 L 484 106 484 147 M 576.707 107.250 C 576.342 108.153, 552.744 167.844, 545.280 186.750 C 544.922 187.656, 546.262 188, 550.149 188 L 555.512 188 560.030 176.250 L 564.547 164.500 581.524 164.500 L 598.500 164.500 602.924 176.250 L 607.348 188 613.534 188 L 619.720 188 604.110 147.010 L 588.500 106.020 582.857 106.010 C 579.271 106.004, 577.029 106.456, 576.707 107.250 M 632 146.950 L 632 188 636.986 188 L 641.972 188 642.236 156.970 L 642.500 125.941 662.588 156.720 L 682.676 187.500 688.338 187.800 L 694 188.100 694 147.050 L 694 106 689.014 106 L 684.028 106 683.764 137.090 L 683.500 168.181 663.419 137.340 L 643.338 106.500 637.669 106.200 L 632 105.900 632 146.950 M 716 147.002 L 716 188.209 735.750 187.755 C 758.970 187.221, 762.241 186.375, 770.599 178.736 C 780.156 170.001, 784.611 157.522, 783.714 142 C 783.021 130.008, 780.147 122.987, 773.006 115.846 C 764.857 107.697, 761.469 106.813, 736.250 106.248 L 716 105.795 716 147.002 M 822.707 107.250 C 822.342 108.153, 798.744 167.844, 791.280 186.750 C 790.922 187.656, 792.262 188, 796.149 188 L 801.512 188 806.030 176.250 L 810.547 164.500 827.524 164.500 L 844.500 164.500 848.924 176.250 L 853.348 188 859.534 188 L 865.720 188 850.110 147.010 L 834.500 106.020 828.857 106.010 C 825.271 106.004, 823.029 106.456, 822.707 107.250 M 878 146.950 L 878 188 882.986 188 L 887.972 188 888.236 156.970 L 888.500 125.941 908.588 156.720 L 928.676 187.500 934.338 187.800 L 940 188.100 940 147.050 L 940 106 935.014 106 L 930.028 106 929.764 137.090 L 929.500 168.181 909.419 137.340 L 889.338 106.500 883.669 106.200 L 878 105.900 878 146.950 M 962 147 L 962 188 986 188 L 1010 188 1010 184 L 1010 180 991.500 180 L 973 180 973 165 L 973 150 987.500 150 L 1002 150 1002 146 L 1002 142 987.500 142 L 973 142 973 128 L 973 114 990.500 114 L 1008 114 1008 110 L 1008 106 985 106 L 962 106 962 147 M 119 129.634 L 119 145.269 125.919 144.774 C 130.188 144.468, 134.114 143.534, 136.169 142.334 C 140.873 139.586, 143.963 133.675, 143.984 127.385 C 144.013 118.174, 138.416 114, 126.032 114 L 119 114 119 129.634 M 495 129.634 L 495 145.269 501.919 144.774 C 506.188 144.468, 510.114 143.534, 512.169 142.334 C 516.873 139.586, 519.963 133.675, 519.984 127.385 C 520.013 118.174, 514.416 114, 502.032 114 L 495 114 495 129.634 M 727 146.981 L 727 180.232 740.250 179.809 C 755.617 179.318, 760.006 177.736, 764.957 170.901 C 769.792 164.226, 771.469 157.826, 771.485 145.979 C 771.499 136.111, 771.298 135.048, 768.243 128.842 C 762.741 117.665, 757.555 115.058, 739.250 114.262 L 727 113.730 727 146.981 M 198.756 138.711 L 192.189 155.500 205.231 155.780 C 212.404 155.934, 218.443 155.890, 218.650 155.683 C 219.108 155.226, 207.128 123.826, 206.071 122.711 C 205.660 122.278, 202.368 129.478, 198.756 138.711 M 574.756 138.711 L 568.189 155.500 581.231 155.780 C 588.404 155.934, 594.443 155.890, 594.650 155.683 C 595.108 155.226, 583.128 123.826, 582.071 122.711 C 581.660 122.278, 578.368 129.478, 574.756 138.711 M 820.756 138.711 L 814.189 155.500 827.231 155.780 C 834.404 155.934, 840.443 155.890, 840.650 155.683 C 841.108 155.226, 829.128 123.826, 828.071 122.711 C 827.660 122.278, 824.368 129.478, 820.756 138.711 M 1155.011 245.960 C 1154.406 248.208, 1154.182 250.486, 1154.514 251.023 C 1155.018 251.838, 1162.032 252.520, 1161.985 251.750 C 1161.976 251.613, 1161.365 249.475, 1160.626 247 C 1158.837 241.011, 1156.462 240.571, 1155.011 245.960" stroke="none" fill="#fbfafa" fill-rule="evenodd"/><path d="M 16 148 L 16 280 648 280 L 1280 280 1280 148 L 1280 16 648 16 L 16 16 16 148 M 1127.201 20.258 C 1126.627 20.950, 1125.512 23.387, 1124.725 25.673 C 1123.307 29.787, 1119.199 35.838, 1117.750 35.945 C 1117.338 35.975, 1116.912 34.087, 1116.805 31.750 C 1116.698 29.413, 1116.556 26.375, 1116.489 25 C 1116.422 23.625, 1115.947 22.387, 1115.434 22.250 C 1114.423 21.979, 1113.501 24.484, 1112.579 30 C 1112.257 31.925, 1111.102 34.962, 1110.012 36.750 C 1108.189 39.739, 1107.606 40.004, 1102.765 40.054 C 1095.065 40.134, 1088.899 42.773, 1087.702 46.500 C 1085.725 52.660, 1083.003 54.482, 1073.519 55.997 C 1069.796 56.592, 1065.436 57.758, 1063.830 58.588 C 1060.954 60.075, 1060.921 60.187, 1061.574 66.299 C 1062.806 77.820, 1068.059 84.976, 1075.327 85.032 C 1077.622 85.049, 1080.374 85.724, 1081.441 86.532 C 1084.061 88.514, 1086.876 88.373, 1090.648 86.073 C 1093.783 84.161, 1093.804 84.162, 1095.837 86.327 C 1098.508 89.170, 1099.951 95.714, 1099.954 105 C 1099.956 113.233, 1098.170 118.443, 1093.148 124.852 C 1088.091 131.306, 1087.943 131.961, 1088.917 143.669 C 1089.606 151.952, 1090.456 155.912, 1092.530 160.500 C 1094.021 163.800, 1096.589 170.325, 1098.235 175 C 1101.215 183.461, 1101.226 183.575, 1100.671 200 C 1099.993 220.078, 1096.834 237.468, 1092.224 246.500 C 1087.963 254.848, 1086.733 256.250, 1083.669 256.250 C 1080.249 256.250, 1070.632 261.958, 1070.190 264.249 C 1069.717 266.709, 1073.762 268, 1081.940 268 C 1094.261 268, 1094.478 267.876, 1099.232 258.122 C 1101.544 253.380, 1104.171 248.825, 1105.071 248 C 1106.845 246.373, 1110 237.132, 1110 233.561 C 1110 232.346, 1111.103 227.666, 1112.452 223.161 C 1113.800 218.656, 1115.665 211.039, 1116.596 206.235 C 1117.526 201.431, 1118.575 196.944, 1118.925 196.265 C 1119.334 195.473, 1123.026 198.557, 1129.215 204.861 L 1138.868 214.693 1138.547 231.597 C 1138.108 254.755, 1137.257 256.823, 1125.789 262.603 C 1118.415 266.320, 1115.888 269.317, 1118.189 271.618 C 1119.893 273.322, 1135.214 275.354, 1140 274.510 C 1146.423 273.378, 1146.759 273.083, 1148.592 266.963 L 1150.379 261 1164.489 261 C 1174.447 261, 1178.967 261.368, 1179.845 262.250 C 1180.590 262.997, 1184.996 263.701, 1190.795 264 L 1200.500 264.500 1200.231 267.128 C 1199.927 270.100, 1201.759 270.963, 1208.422 270.986 C 1213.536 271.004, 1224.950 266.452, 1227.500 263.377 C 1229.349 261.148, 1230.558 260.888, 1243.500 259.935 C 1264.304 258.403, 1268 257.950, 1268 256.928 C 1268 255.878, 1268.999 255.951, 1243.522 255.120 L 1224.543 254.500 1223.574 251.737 C 1222.921 249.874, 1222.988 247.107, 1223.782 243.237 C 1224.740 238.563, 1224.689 236.481, 1223.507 232 C 1221.625 224.869, 1216.610 215.412, 1211.189 208.777 C 1207.115 203.790, 1197.079 187.283, 1187.309 169.500 C 1184.892 165.100, 1179.518 157.450, 1175.367 152.500 C 1171.215 147.550, 1166.448 140.800, 1164.773 137.500 C 1160.649 129.378, 1155.301 121.698, 1148.755 114.500 C 1145.755 111.200, 1142.517 106.982, 1141.560 105.126 C 1137.936 98.097, 1134.888 85.449, 1133.958 73.577 C 1133.444 67.020, 1132.744 59.554, 1132.404 56.986 C 1131.950 53.567, 1132.245 51.427, 1133.505 48.990 C 1135.465 45.200, 1135.221 41.949, 1131.921 27.893 C 1129.833 18.997, 1129.156 17.902, 1127.201 20.258 M 350.558 105.248 C 341.519 107.636, 333.905 119.562, 335.478 128.869 C 336.819 136.808, 341.462 141.328, 358.740 151.512 C 370.031 158.168, 372.235 160.645, 372.722 167.228 C 373.751 181.152, 359.372 186.176, 341.582 178.110 L 334.903 175.081 335.201 180.770 L 335.500 186.460 343 188.279 C 351.689 190.386, 364.370 190.138, 370.073 187.747 C 386.572 180.833, 390.096 160.437, 376.656 149.641 C 374.370 147.805, 368 143.682, 362.500 140.479 C 357 137.275, 351.277 133.350, 349.782 131.755 C 344.397 126.012, 345.500 118.180, 352.299 113.892 C 356.975 110.943, 365.577 111.748, 373.814 115.906 L 380.102 119.080 379.801 113.324 L 379.500 107.567 373 105.851 C 365.722 103.929, 356.489 103.681, 350.558 105.248 M 426.270 105.054 C 408.170 108.626, 397 124.634, 397 147 C 397 164.810, 404.274 179.580, 415.937 185.453 C 426.836 190.942, 442.356 191.482, 459.159 186.957 L 463 185.923 463 169.461 L 463 153 457.500 153 L 452 153 452 166.461 L 452 179.923 447.750 181.072 C 441.683 182.713, 430.380 181.767, 425.372 179.200 C 419.777 176.332, 413.492 168.945, 411.309 162.671 C 408.557 154.762, 408.895 137.469, 411.957 129.500 C 415.141 121.214, 421.853 114.714, 428.998 113.001 C 436.438 111.216, 446.077 112.259, 455.028 115.817 L 462.500 118.787 462.808 113.738 C 463.007 110.467, 462.672 108.416, 461.857 107.912 C 461.165 107.484, 456.752 106.428, 452.049 105.565 C 442.921 103.890, 433.150 103.696, 426.270 105.054 M 1034.558 105.248 C 1025.519 107.636, 1017.905 119.562, 1019.478 128.869 C 1020.819 136.808, 1025.462 141.328, 1042.740 151.512 C 1054.031 158.168, 1056.235 160.645, 1056.722 167.228 C 1057.751 181.152, 1043.372 186.176, 1025.582 178.110 L 1018.903 175.081 1019.201 180.770 L 1019.500 186.460 1027 188.279 C 1035.689 190.386, 1048.370 190.138, 1054.073 187.747 C 1070.572 180.833, 1074.096 160.437, 1060.656 149.641 C 1058.370 147.805, 1052 143.682, 1046.500 140.479 C 1041 137.275, 1035.277 133.350, 1033.782 131.755 C 1028.397 126.012, 1029.500 118.180, 1036.299 113.892 C 1040.975 110.943, 1049.577 111.748, 1057.814 115.906 L 1064.102 119.080 1063.801 113.324 L 1063.500 107.567 1057 105.851 C 1049.722 103.929, 1040.489 103.681, 1034.558 105.248 M 29 110 L 29 114 43 114 L 57 114 57 151 L 57 188 62.500 188 L 68 188 68 151 L 68 114 82.500 114 L 97 114 97 110 L 97 106 63 106 L 29 106 29 110 M 108 147 L 108 188 113.500 188 L 119 188 119 170.500 L 119 153 124.389 153 L 129.779 153 141.139 170.448 L 152.500 187.897 159.250 187.948 C 162.963 187.977, 166 187.742, 166 187.427 C 166 187.111, 160.134 178.470, 152.965 168.223 L 139.931 149.592 142.715 148.177 C 149.935 144.509, 154.823 137.114, 155.710 128.516 C 156.369 122.131, 154.796 116.977, 150.800 112.425 C 146.328 107.331, 140.530 106, 122.818 106 L 108 106 108 147 M 200.707 107.250 C 200.342 108.153, 176.744 167.844, 169.280 186.750 C 168.922 187.656, 170.262 188, 174.149 188 L 179.512 188 184.030 176.250 L 188.547 164.500 205.524 164.500 L 222.500 164.500 226.924 176.250 L 231.348 188 237.534 188 L 243.720 188 228.110 147.010 L 212.500 106.020 206.857 106.010 C 203.271 106.004, 201.029 106.456, 200.707 107.250 M 256 146.950 L 256 188 260.986 188 L 265.972 188 266.236 156.970 L 266.500 125.941 286.588 156.720 L 306.676 187.500 312.338 187.800 L 318 188.100 318 147.050 L 318 106 313.014 106 L 308.028 106 307.764 137.090 L 307.500 168.181 287.419 137.340 L 267.338 106.500 261.669 106.200 L 256 105.900 256 146.950 M 484 147 L 484 188 489.500 188 L 495 188 495 170.500 L 495 153 500.389 153 L 505.779 153 517.139 170.448 L 528.500 187.897 535.250 187.948 C 538.962 187.977, 542 187.742, 542 187.427 C 542 187.111, 536.134 178.470, 528.965 168.223 L 515.931 149.592 518.715 148.177 C 525.935 144.509, 530.823 137.114, 531.710 128.516 C 532.369 122.131, 530.796 116.977, 526.800 112.425 C 522.328 107.331, 516.530 106, 498.818 106 L 484 106 484 147 M 576.707 107.250 C 576.342 108.153, 552.744 167.844, 545.280 186.750 C 544.922 187.656, 546.262 188, 550.149 188 L 555.512 188 560.030 176.250 L 564.547 164.500 581.524 164.500 L 598.500 164.500 602.924 176.250 L 607.348 188 613.534 188 L 619.720 188 604.110 147.010 L 588.500 106.020 582.857 106.010 C 579.271 106.004, 577.029 106.456, 576.707 107.250 M 632 146.950 L 632 188 636.986 188 L 641.972 188 642.236 156.970 L 642.500 125.941 662.588 156.720 L 682.676 187.500 688.338 187.800 L 694 188.100 694 147.050 L 694 106 689.014 106 L 684.028 106 683.764 137.090 L 683.500 168.181 663.419 137.340 L 643.338 106.500 637.669 106.200 L 632 105.900 632 146.950 M 716 147.002 L 716 188.209 735.750 187.755 C 758.970 187.221, 762.241 186.375, 770.599 178.736 C 780.156 170.001, 784.611 157.522, 783.714 142 C 783.021 130.008, 780.147 122.987, 773.006 115.846 C 764.857 107.697, 761.469 106.813, 736.250 106.248 L 716 105.795 716 147.002 M 822.707 107.250 C 822.342 108.153, 798.744 167.844, 791.280 186.750 C 790.922 187.656, 792.262 188, 796.149 188 L 801.512 188 806.030 176.250 L 810.547 164.500 827.524 164.500 L 844.500 164.500 848.924 176.250 L 853.348 188 859.534 188 L 865.720 188 850.110 147.010 L 834.500 106.020 828.857 106.010 C 825.271 106.004, 823.029 106.456, 822.707 107.250 M 878 146.950 L 878 188 882.986 188 L 887.972 188 888.236 156.970 L 888.500 125.941 908.588 156.720 L 928.676 187.500 934.338 187.800 L 940 188.100 940 147.050 L 940 106 935.014 106 L 930.028 106 929.764 137.090 L 929.500 168.181 909.419 137.340 L 889.338 106.500 883.669 106.200 L 878 105.900 878 146.950 M 962 147 L 962 188 986 188 L 1010 188 1010 184 L 1010 180 991.500 180 L 973 180 973 165 L 973 150 987.500 150 L 1002 150 1002 146 L 1002 142 987.500 142 L 973 142 973 128 L 973 114 990.500 114 L 1008 114 1008 110 L 1008 106 985 106 L 962 106 962 147 M 119 129.634 L 119 145.269 125.919 144.774 C 130.188 144.468, 134.114 143.534, 136.169 142.334 C 140.873 139.586, 143.963 133.675, 143.984 127.385 C 144.013 118.174, 138.416 114, 126.032 114 L 119 114 119 129.634 M 495 129.634 L 495 145.269 501.919 144.774 C 506.188 144.468, 510.114 143.534, 512.169 142.334 C 516.873 139.586, 519.963 133.675, 519.984 127.385 C 520.013 118.174, 514.416 114, 502.032 114 L 495 114 495 129.634 M 727 146.981 L 727 180.232 740.250 179.809 C 755.617 179.318, 760.006 177.736, 764.957 170.901 C 769.792 164.226, 771.469 157.826, 771.485 145.979 C 771.499 136.111, 771.298 135.048, 768.243 128.842 C 762.741 117.665, 757.555 115.058, 739.250 114.262 L 727 113.730 727 146.981 M 198.756 138.711 L 192.189 155.500 205.231 155.780 C 212.404 155.934, 218.443 155.890, 218.650 155.683 C 219.108 155.226, 207.128 123.826, 206.071 122.711 C 205.660 122.278, 202.368 129.478, 198.756 138.711 M 574.756 138.711 L 568.189 155.500 581.231 155.780 C 588.404 155.934, 594.443 155.890, 594.650 155.683 C 595.108 155.226, 583.128 123.826, 582.071 122.711 C 581.660 122.278, 578.368 129.478, 574.756 138.711 M 820.756 138.711 L 814.189 155.500 827.231 155.780 C 834.404 155.934, 840.443 155.890, 840.650 155.683 C 841.108 155.226, 829.128 123.826, 828.071 122.711 C 827.660 122.278, 824.368 129.478, 820.756 138.711 M 1155.011 245.960 C 1154.406 248.208, 1154.182 250.486, 1154.514 251.023 C 1155.018 251.838, 1162.032 252.520, 1161.985 251.750 C 1161.976 251.613, 1161.365 249.475, 1160.626 247 C 1158.837 241.011, 1156.462 240.571, 1155.011 245.960" stroke="none" fill="#db141c" fill-rule="evenodd"/></svg>